<svg height="512" viewBox="0 0 64 64" width="512" xmlns="http://www.w3.org/2000/svg"><g id="Stroke_copy_2" data-name="Stroke copy 2"><path d="m43 15h4v10h-4z" fill="#cc5144"/><path d="m40 11h10v4h-10z" fill="#f8664f"/><path d="m32.39 19.39h4v10h-4z" fill="#f8664f" transform="matrix(.707 -.707 .707 .707 -7.18 31.46)"/><path d="m53.61 19.39h4v10h-4z" fill="#f8664f" transform="matrix(.707 .707 -.707 .707 33.54 -32.18)"/><circle cx="45" cy="35" fill="#aae1f9" r="16"/><path d="m42 11h8a0 0 0 0 1 0 0v2a0 0 0 0 1 0 0h-6a2 2 0 0 1 -2-2 0 0 0 0 1 0 0z" fill="#f89c8d"/><circle cx="45" cy="35" fill="#57b7eb" r="12"/><path d="m45 23a12 12 0 0 0 -10.24 5.76 12 12 0 0 1 16.48 16.48 12 12 0 0 0 -6.24-22.24z" fill="#4891d3"/><g fill="#f8664f"><path d="m45 24a1 1 0 0 0 1-1v-3.95c-.33 0-.66-.05-1-.05s-.67 0-1 .05v3.95a1 1 0 0 0 1 1z"/><path d="m61 34h-4a1 1 0 0 0 0 2h4c0-.33 0-.66 0-1s0-.67 0-1z"/><path d="m39 25.61a1 1 0 0 0 .5-.14 1 1 0 0 0 .37-1.36l-2-3.43a18.59 18.59 0 0 0 -1.74 1l2 3.44a1 1 0 0 0 .87.49z"/><path d="m54.53 29.5a1 1 0 0 0 .86.5 1 1 0 0 0 .5-.13l3.43-2a18.59 18.59 0 0 0 -1-1.74l-3.44 2a1 1 0 0 0 -.35 1.37z"/><path d="m50.5 25.47a1 1 0 0 0 1.37-.36l2-3.44a18.59 18.59 0 0 0 -1.74-1l-2 3.43a1 1 0 0 0 .37 1.37z"/><path d="m54.53 40.5a1 1 0 0 0 .36 1.37l3.44 2a18.59 18.59 0 0 0 1-1.74l-3.43-2a1 1 0 0 0 -1.37.37z"/><path d="m34.61 30a1 1 0 0 0 .5-1.87l-3.44-2a18.59 18.59 0 0 0 -1 1.74l3.43 2a1 1 0 0 0 .51.13z"/><path d="m50 34h-4v-6a1 1 0 0 0 -2 0v7a1 1 0 0 0 1 1h5a1 1 0 0 0 0-2z"/></g><path d="m44 23.05c.33 0 .66-.05 1-.05s.66 0 1 .05c0 0 0 0 0-.05v-3.95c-.33 0-.66-.05-1-.05s-.67 0-1 .05v3.95s0 0 0 .05z" fill="#f89c8d"/><path d="m57 34v1s0 .66 0 1h4c0-.33 0-.66 0-1s0-.67 0-1z" fill="#f89c8d"/><path d="m38.16 25.15a11.28 11.28 0 0 1 1.72-1s0 0 0-.05l-2-3.43-.83.44-.91.55 2 3.44z" fill="#f89c8d"/><path d="m54.86 28.17a11.6 11.6 0 0 1 1 1.72l3.43-2c-.14-.28-.29-.56-.44-.83s-.36-.61-.55-.91l-3.44 2z" fill="#f89c8d"/><path d="m50.12 24.16a11.28 11.28 0 0 1 1.72 1l2-3.44-.91-.55-.83-.44-2 3.43s.03-.02.02 0z" fill="#f89c8d"/><path d="m55.84 40.12a12 12 0 0 1 -1 1.71l3.44 2c.19-.3.37-.6.55-.91s.3-.55.44-.83l-3.43-2z" fill="#f89c8d"/><path d="m34.16 29.89a11.6 11.6 0 0 1 1-1.72l-3.44-2c-.19.29-.37.6-.55.91s-.3.55-.44.83l3.43 2z" fill="#f89c8d"/><path d="m36.35 55.26-23.68-13.67a5 5 0 0 0 1.83 6.83l18.08 10.44a16 16 0 0 0 8 2.14h18.42a2 2 0 0 0 2-2v-2h-18.15a13 13 0 0 1 -6.5-1.74z" fill="#aae1f9"/><path d="m49 45h-6.42l-5.35-3.09a1.42 1.42 0 0 1 -.52-1.91l1.57-2.72a1.44 1.44 0 0 0 -.53-2l-7.8.14a5.82 5.82 0 0 1 -5.55-7.85l-2.73-1.57-9 15.59 23.68 13.67a13 13 0 0 0 6.5 1.74h18.15a12 12 0 0 0 -12-12z" fill="#f89c8d"/><path d="m16.73 33.43h14a0 0 0 0 1 0 0 6 6 0 0 1 -6 6h-8a0 0 0 0 1 0 0v-6a0 0 0 0 1 0 0z" fill="#f9e109" transform="matrix(.87 .5 -.5 .87 21.39 -6.99)"/><path d="m55 46.61a5.73 5.73 0 0 1 -5.78 4.39h-1.82a30 30 0 0 1 -15-4l-17.13-9.91-2.6 4.5 23.68 13.67a13 13 0 0 0 6.5 1.74h18.15a12 12 0 0 0 -6-10.39z" fill="#f8664f"/><path d="m43 59h18a0 0 0 0 1 0 0 2 2 0 0 1 -2 2h-18a0 0 0 0 1 0 0 2 2 0 0 1 2-2z" fill="#57b7eb"/><path d="m16 30h-8a1 1 0 0 1 0-2h8a1 1 0 0 1 0 2z" fill="#f9e109"/><path d="m23 59h-19a1 1 0 0 1 0-2h19a1 1 0 0 1 0 2z" fill="#f9e109"/><path d="m11 38h-7a1 1 0 0 1 0-2h7a1 1 0 0 1 0 2z" fill="#f9e109"/><path d="m8 47h-4a1 1 0 0 1 0-2h4a1 1 0 0 1 0 2z" fill="#f9e109"/><path d="m16 54h-8a1 1 0 0 1 0-2h8a1 1 0 0 1 0 2z" fill="#f9e109"/><path d="m45 48a1 1 0 0 1 -1-1v-4a1 1 0 0 1 2 0v4a1 1 0 0 1 -1 1z" fill="#f9e109"/><path d="m49 48a1 1 0 0 1 -1-1v-4a1 1 0 0 1 2 0v4a1 1 0 0 1 -1 1z" fill="#f9e109"/><path d="m38 46a1 1 0 0 1 -.71-.29 1 1 0 0 1 0-1.42l3-3a1 1 0 0 1 1.42 1.42l-3 3a1 1 0 0 1 -.71.29z" fill="#f9e109"/><path d="m59.38 51h-9.38a1 1 0 0 0 0 2h10.29a11.67 11.67 0 0 0 -.91-2z" fill="#fcbc04"/></g></svg>